# xmcd
# 
# Track frame offsets:
#     150
#     14735
#     37256
#     54064
#     71706
#     88065
#     103518
#     128323
#     149342
#     166455
#     178939
#     191930
# 
# Disc length: 2716
# 
# Revision: 0
# Processed by: cddbd v1.5.2PL0 Copyright (c) Steve Scherf et al.
# Submitted via: fre:ac v1.0.31
# 
DISCID=ad0a9a0c
DTITLE=Mercy - Voodoo Boogie Train
DYEAR=2013
DGENRE=Blues
TTITLE0=VoodooBoogie Train
TTITLE1=Atchafalaya Bridge
TTITLE2=A Desperate Man
TTITLE3=The Beast in Me
TTITLE4=Down The Bayou
TTITLE5=When You Go Down Town
TTITLE6=You Got Another Lover
TTITLE7=Cruel and Busy Blues
TTITLE8=In Springtime
TTITLE9=I am the Guitar Man
TTITLE10=Don't Cry For Mercy
TTITLE11=Summer On The Elk River
EXTD=
EXTT0=
EXTT1=
EXTT2=
EXTT3=
EXTT4=
EXTT5=
EXTT6=
EXTT7=
EXTT8=
EXTT9=
EXTT10=
EXTT11=
PLAYORDER=
